<svg id="Camada_1" class='arrow' data-name="Camada 1" xmlns="http://www.w3.org/2000/svg" viewBox="0 0 296.18 394.34"><path d="M620.15,352c12.32,2.22,22.51,8.79,32.6,15.71q104.64,71.76,209.38,143.36c8.83,6.05,16.53,13.05,20.87,23.09,6.57,15.17,2.7,32.42-10.18,44.67a85,85,0,0,1-10.51,8.4Q754.64,661,646.88,734.69c-7.77,5.32-15.87,10-25.43,11.31-15.28,2.08-26.45-5.49-29.75-20.58a76.15,76.15,0,0,1-1.67-16q-.13-160.1,0-320.18a73,73,0,0,1,2.07-17.49c2.64-10.53,9.58-17.25,20.32-19.74Z" transform="translate(-589.96 -352)"/></svg>