<svg id="Camada_1" data-name="Camada 1" xmlns="http://www.w3.org/2000/svg" viewBox="0 0 394.8 393.24"><path d="M541,419.27c15.36-27.4,39.59-36.19,69.73-34.89,24.73,1.08,49.54.22,74.32.22q.59,7.57,1.15,15.14c-11.46,1.79-22.92,5.08-34.39,5.11-95.77.3-92.24-8.49-91.63,92.22.35,59.64-.2,119.28.17,178.92.21,34.51,9.69,44.32,43.91,44.49q123.39.62,246.79,0c36.35-.16,44.07-8.63,44.54-46.59.32-26,.06-52.1.06-84.24,36.69,31.84,22.65,122.41-15,150.7H541Z" transform="translate(-541 -347.12)"/><path d="M645.54,638.49c13.48-47.32,12.59-88.8,44.54-120.07,49.87-48.8,98.68-98.68,148.23-147.83,30.12-29.88,53.38-31,79.37-4.7,25.73,26,24.3,48.92-5.85,79.36-44.06,44.47-91.07,86.33-131.94,133.54C745.38,618.67,699.44,622.53,645.54,638.49Zm52.74-94.11,38.58,38.88,139.6-139.68-36.78-40.4Zm199.2-115.53c26.13-19.71,21.39-36.69,2.65-52.46-17.56-14.77-32.5-11.29-45.3,8.92Zm-211.3,130c-5.27,20.06-8.9,33.92-13.76,52.43l46.86-14.14Z" transform="translate(-541 -347.12)"/></svg>