<svg id="Camada_1" data-name="Camada 1" xmlns="http://www.w3.org/2000/svg" viewBox="0 0 408.8 389.56"><path d="M1164.6,523.43l-18,20.15-3,3.27-19-16.45v5.48q0,74.85,0,149.7c0,23.87-14.56,42.71-37.09,48.11a46.64,46.64,0,0,1-10.65,1.27c-28.34.11-56.69.07-85,.07-.78,0-1.56-.07-2.7-.12V579H933.18V735H928.6q-41.31,0-82.63,0c-29.59,0-50.14-20.6-50.15-50.24q0-74.44,0-148.9v-5.44L776.72,546.9l-20.92-24L960.05,345.48c1,.79,2,1.46,2.84,2.22l200.42,174a12.83,12.83,0,0,0,1.29.89ZM960.34,387.77a16.35,16.35,0,0,0-1.46,1Q894.4,444.76,830,500.84a7.45,7.45,0,0,0-2.18,5q-.16,89.6-.09,179.2c0,11.63,6.42,18,18,18q25.74,0,51.48,0h4.14V547H1021V703.11c17.79,0,35.1-.41,52.37.13,13,.4,19.49-8.12,19.44-19.29-.27-58.67-.17-117.34,0-176a10.33,10.33,0,0,0-4-8.78q-48.93-42.24-97.68-84.71Q975.77,401.13,960.34,387.77Z" transform="translate(-755.8 -345.48)"/></svg>