<svg id="Camada_1" data-name="Camada 1" xmlns="http://www.w3.org/2000/svg" viewBox="0 0 255 79"><path d="M1001,579H921V529.25h58.83v-8.52H921V500h80v50.22H942.39v8.72H1001Z" transform="translate(-833 -500)"/><path d="M864,579H833V500h21v57.59c7.93-5.41,8.62-6.63,8.68-14.61q.15-21.5.32-43h21c-.14,14.31.18,28.64-.61,42.9-.4,7.16,3.32,10.77,8.61,15.1V500h21v79H883l-9.86-10.41Z" transform="translate(-833 -500)"/><path d="M1088,559v20h-80c.1-1.65.27-3.3.28-5q.09-34.09.17-68.18c0-2,.36-3.91.55-5.87h79v21h-58.47v37.75h6.12Z" transform="translate(-833 -500)"/></svg>