<svg xmlns="http://www.w3.org/2000/svg" id="Camada_1" data-name="Camada 1" viewBox="0 0 288.11 287.95"><defs/><g class="cls-1"><path d="M856.15,600c-54.06,43.71-129.32,31.82-168.91-17-39.1-48.25-35.8-116.46,7.58-160.47,42.54-43.14,111.25-47.34,159-10.22,50.4,39.19,63.79,116.1,18.86,171.33a23,23,0,0,1,3.27,2.32q33.72,33.63,67.31,67.41a17.65,17.65,0,0,1,4.58,8.26c1,4.95-1.35,9-5.68,11.7a11.72,11.72,0,0,1-13.37-.84,38,38,0,0,1-3.26-3.09Zm-75.94-189a96,96,0,1,0,95.86,96.37A96.21,96.21,0,0,0,780.21,410.94Z" transform="translate(-659.96 -387.05)"/></g></svg>