<svg id="Camada_1" data-name="Camada 1" xmlns="http://www.w3.org/2000/svg" viewBox="0 0 340.79 408.79"><defs><style>.cls-1{fill:#fff;}</style></defs><path d="M553.41,749.6c-4.77-1-9.62-1.73-14.29-3.08-29-8.38-47.19-30.68-48.46-61.12-1.32-31.6,2.13-62.73,14.15-92.32,7.75-19.09,19-35.61,37.87-45.71a74.74,74.74,0,0,1,37.18-8.92c4.12.08,8.46,2.16,12.22,4.21,6,3.29,11.67,7.39,17.55,11q51.29,31.67,102.56-.08c4.75-2.94,9.59-5.77,14-9.11,8.17-6.13,17.17-6.9,26.89-5.47,26.51,3.9,45.24,18.42,57.86,41.59,11.28,20.68,16.35,43.15,18.61,66.29a330,330,0,0,1,1.56,35.84c-.43,35.66-24.9,62.2-60.37,66.11a15.09,15.09,0,0,0-2.6.75Zm107.42-24v-.06c33.79,0,67.59.29,101.38-.1,28.08-.32,45.32-18.23,45.09-46.27a310.88,310.88,0,0,0-1.7-31.86c-2.11-19-6-37.51-15.24-54.54-9.53-17.67-23.34-29.11-44.14-30.26a10.41,10.41,0,0,0-5.55,1.37c-5.15,3-10.09,6.41-15.16,9.59-37.78,23.7-76.9,26.7-117.13,6.91-9.38-4.62-17.94-10.87-26.92-16.3-1.32-.8-2.9-1.78-4.32-1.72-12.91.58-24.5,4.64-33.79,14-7.71,7.76-13.09,17.07-17,27.19-10,25.87-12.45,53-11.79,80.35.36,15,6.82,27.21,20.12,35.07,8.86,5.23,18.67,6.64,28.78,6.64Z" transform="translate(-490.4 -340.81)"/><path d="M756.77,439.17c.17,54.31-43.5,98.1-98.3,98.57-54,.46-98.37-43.69-98.65-98.2a98.48,98.48,0,1,1,196.95-.37Zm-98.49,74.62a74.52,74.52,0,1,0-74.5-74.54A74.31,74.31,0,0,0,658.28,513.79Z" transform="translate(-490.4 -340.81)"/><path class="cls-1" d="M658.28,513.79a74.52,74.52,0,1,1,74.54-74.51A74.25,74.25,0,0,1,658.28,513.79Z" transform="translate(-490.4 -340.81)"/></svg>